<?xml version="1.0" encoding="UTF-8" standalone="no"?>
<svg
   viewBox="0 0 1008 1008"
   version="1.1"
   id="svg9"
   sodipodi:docname=".svg"
   inkscape:version="1.4.3 (fcd0343856, 2026-01-01)"
   xmlns:inkscape="http://www.inkscape.org/namespaces/inkscape"
   xmlns:sodipodi="http://sodipodi.sourceforge.net/DTD/sodipodi-0.dtd"
   xmlns:xlink="http://www.w3.org/1999/xlink"
   xmlns="http://www.w3.org/2000/svg"
   xmlns:svg="http://www.w3.org/2000/svg">
  <defs
     id="defs9">
    <clipPath
       clipPathUnits="userSpaceOnUse"
       id="clipPath10">
      <use
         x="0"
         y="0"
         xlink:href="#g9"
         id="use10" />
    </clipPath>
  </defs>
  <sodipodi:namedview
     id="namedview9"
     pagecolor="#ffffff"
     bordercolor="#000000"
     borderopacity="0.25"
     inkscape:showpageshadow="2"
     inkscape:pageopacity="0.0"
     inkscape:pagecheckerboard="0"
     inkscape:deskcolor="#d1d1d1"
     inkscape:zoom="0.28276908"
     inkscape:cx="-401.3876"
     inkscape:cy="380.16887"
     inkscape:window-width="1854"
     inkscape:window-height="1011"
     inkscape:window-x="0"
     inkscape:window-y="0"
     inkscape:window-maximized="1"
     inkscape:current-layer="g9" />
  <path
     d="M 101.5,61.16 C 84.292,64.41 68.082,79.855 63.361,97.5 c -1.713,6.404 -1.987,502.07 -0.282,509.472 4.094,17.764 18.516,32.449 36.349,37.01 10.674,2.729 795.876,3.213 807.397,0.497 18.511,-4.363 32.841,-18.272 37.722,-36.61 2.306,-8.665 2.153,-503.147 -0.159,-510.937 C 939.641,80.929 928.886,69.451 912.5,62.899 l -6,-2.399 -400,-0.142 C 259.156,60.27 104.592,60.577 101.5,61.16 m 1.494,21.774 C 98.142,84.41 94.312,86.913 90.578,91.046 83.347,99.049 83.5,97.946 83.5,142 v 39.5 H 504 924.5 V 143 c 0,-47.419 -1.176,-51.729 -16,-58.647 l -5,-2.333 -399,0.076 C 285.05,82.138 104.372,82.515 102.994,82.934 M 83.238,403.749 83.5,603.5 l 2.256,4.222 c 3.524,6.594 7.91,10.975 13.761,13.743 l 5.38,2.545 399.801,-0.255 399.802,-0.255 4.843,-2.474 c 5.695,-2.909 10.126,-7.654 13.051,-13.975 L 924.5,602.5 v -199 -199 l -420.762,-0.251 -420.762,-0.251 0.262,199.751"
     stroke="none"
     fill="#499ac7"
     fill-rule="evenodd"
     id="window-border"
     style="display:inline"
     sodipodi:nodetypes="cccccccscccccscccscccccccccccsscccccc" />
  <path
     d="m 125.5,113.503 c -14.996,5.304 -16.503,25.353 -2.445,32.525 7.705,3.931 17.743,1.363 22.55,-5.769 9.335,-13.853 -4.507,-32.274 -20.105,-26.756"
     stroke="none"
     fill="#be2020"
     fill-rule="evenodd"
     id="path4"
     style="display:inline"
     inkscape:label="close-button" />
  <path
     d="M 185.727 114.791 C 166.530 128.574, 185.749 157.875, 205.435 144.836 C 220.892 134.597, 213.856 111.909, 195.264 112.041 C 190.633 112.074, 188.759 112.614, 185.727 114.791"
     stroke="none"
     fill="#fbbf00"
     fill-rule="evenodd"
     id="path5"
     inkscape:label="minimise-button" />
  <path
     d="M 254.145 113.070 C 235.385 120.584, 239.705 148.051, 259.636 147.984 C 278.390 147.920, 283.761 121.699, 266.616 113.913 C 262.143 111.882, 257.838 111.591, 254.145 113.070"
     stroke="none"
     fill="#70bd4f"
     fill-rule="evenodd"
     id="path6"
     inkscape:label="expand-button" />
  <path
     d="M 423.0748,375.5748 C 423.019,375.70802 430,386.418 430,386.418 c -0.20676,0.52361 -71.414,63.762 -71.414,63.762 l -40.5456,3.58048 -53.44794,55.6781 62.48669,-24.0943 -19.93379,36.28168 104.84876,-73.37322 -33.22095,72.21393 -78.04304,39.86823 c 0.0158,0.65918 55.223,0.73424 85.26863,0.73424 23.60565,-5.87566 101.11018,-141.05155 101.11018,-141.05155 l -17.42995,47.34572 c 0,0 71.74975,-64.92174 71.55965,-64.62643 l -56.71449,88.09926 41.11988,-22.63948 -83.14496,104.74886 140.81834,-85.98095 c 0,0 -9.32252,56.23226 8.4147,61.07861 17.73722,4.84635 26.49529,-35.20559 26.36442,-35.87882 0,0 36.83984,61.65486 37.82284,63.99186 -0.69639,0.31897 0.73517,-41.54274 0.73517,-41.54274 l 68.73144,28.07341 -55.75222,-95.65679 99.47659,104.41383 c 4.56641,-6.51693 1.32,-37.90281 1.32,-37.90281 l 49.79045,38.3998 -39.85145,-67.35504 c 0,0 62.108,30.20549 62.38685,23.42282 6.28343,-8.07869 -80.56286,-66.65511 -78.49778,-72.04355 1.04103,-2.71095 27.44392,5.80606 6.45314,-4.37649 -3.93888,-7.46315 -56.0913,-43.96886 -58.79656,-41.90366 -0.51645,0.51645 23.04391,79.32691 20.452,79.283 -8.1593,-0.13909 -59.24314,-90.42135 -66.016,-83.653 0,0 18.3733,57.01454 11.649,47.685 -20.74791,-7.53675 -40.65438,-67.4835 -59.251,-69.742 -5.53553,24.29788 23.289,76.43545 32.152,97.596 4.481,10.633 3.888,11.689 -3.172,5.646 -19.27604,-10.72175 -32.69348,-29.71941 -50.092,-42.093 -3.34,-2.306 -11.33,1.237 -11.33,1.237 -7.35983,4.84825 -17.2309,6.38209 -23.845,12.396 -5.115,5.339 -9.339,2.429 -6.048,-4.168 12.66768,-33.41148 28.004,-103.688 28.004,-103.688 L 515.962,394 581.16311,242.61367"
     stroke="none"
     fill="#05527c"
     fill-rule="evenodd"
     id="path8"
     style="display:inline"
     sodipodi:nodetypes="ccccccccccsccscccccccccccccccccsccsccsccccccc" />
  <path
     d="m 582.566,241.898 c -1.329,0.52 -1.563,0.986 -0.75,1.489 0.651,0.402 1.184,1.706 1.184,2.898 0,1.538 25.345,27.57 87.326,89.691 126.219,126.506 122.571,122.004 95.239,117.525 -12.278,-2.012 -9.785,2.444 9.438,16.87 14.631,10.979 33.094,25.662 43.727,34.773 6.473,5.547 12.882,10.821 14.241,11.72 5.35,3.541 10.109,10.136 7.314,10.136 -0.89,0 -21.052,-6.787 -23.785,-8.007 -6.156,-2.746 -29.796,-14.426 -34.447,-17.019 -6.012,-3.351 -9.281,-3.362 -6.917,-0.023 5.415,7.649 15.688,22.812 17.212,25.405 1.016,1.729 3.041,4.715 4.5,6.635 2.524,3.321 3.521,4.957 5.798,9.509 0.55,1.1 2.429,4.781 4.177,8.179 6.249,12.155 3.851,12.45 -9.664,1.19 -0.737,-0.614 -4.787,-3.819 -9,-7.121 -4.212,-3.302 -10.426,-8.7 -13.808,-11.997 -6.375,-6.213 -9.114,-6.874 -7.835,-1.892 10.362,40.366 4.832,38.976 -41.216,-10.359 -21.486,-23.019 -58.076,-59.995 -58.741,-59.361 -0.926,0.883 12.836,27.675 18.42,35.861 0.938,1.375 2.999,4.975 4.578,8 1.58,3.025 4.014,7.307 5.408,9.516 3.805,6.029 4.412,7.04 11.705,19.484 3.706,6.325 7.061,11.73 7.455,12.01 0.394,0.281 1.021,1.725 1.394,3.209 0.372,1.484 1.308,3.223 2.079,3.862 5.2,4.316 0.193,4.603 -8.875,0.509 -2.872,-1.296 -12.423,-5.38 -21.223,-9.075 -8.8,-3.695 -19.509,-8.247 -23.798,-10.116 -4.29,-1.87 -8.002,-3.399 -8.25,-3.399 -0.249,0 -0.452,8.55 -0.452,19 0,20.437 -0.83,23.263 -4.48,15.25 -4.018,-8.821 -14.002,-28.167 -18.333,-35.522 -2.578,-4.377 -5.913,-10.045 -7.412,-12.594 -1.499,-2.548 -3.388,-6.096 -4.199,-7.884 -2.302,-5.075 -7.498,-0.433 -12.451,11.125 -0.206,0.481 -1.023,1.606 -1.815,2.5 -0.793,0.894 -3.704,5.112 -6.469,9.375 -5.345,8.238 -7.33,9.441 -8.254,5 -1.662,-7.988 -3.885,-25.477 -4.924,-38.737 -1.421,-18.148 -1.077,-17.907 -13.887,-9.723 -5.102,3.26 -16.476,10.337 -25.276,15.728 -8.8,5.39 -18.7,11.475 -22,13.521 -15.665,9.714 -23.664,14.588 -26.216,15.974 -1.531,0.831 -5.543,3.194 -8.915,5.25 -3.372,2.055 -6.408,3.737 -6.747,3.737 -0.34,0 -2.81,1.575 -5.489,3.5 -2.68,1.925 -5.164,3.5 -5.521,3.5 -0.356,0 -3.611,1.8 -7.232,4 -9.936,6.036 -11.486,4.714 -3.894,-3.322 2.467,-2.612 7.053,-7.996 10.19,-11.964 3.138,-3.968 8.051,-9.915 10.919,-13.216 2.867,-3.301 6.719,-8.108 8.559,-10.682 1.84,-2.574 6.248,-8.423 9.796,-12.998 33.247,-42.877 32.258,-40.993 17.041,-32.459 -5.533,3.102 -10.261,5.641 -10.508,5.641 -0.246,0 -3.389,1.8 -6.983,4 -10.003,6.123 -10.917,5.088 -4.552,-5.15 2.172,-3.492 4.919,-8.15 6.104,-10.35 1.186,-2.2 5.192,-8.524 8.903,-14.054 3.711,-5.53 6.927,-10.48 7.146,-11 0.626,-1.485 16.094,-24.887 16.819,-25.446 1.492,-1.15 8.233,-12.18 7.743,-12.67 -0.934,-0.934 -15.859,11.378 -30.655,25.289 -11.96,11.245 -31.17,27.381 -32.597,27.381 -2.181,0 -1.789,-1.948 3.736,-18.561 2.831,-8.513 4.814,-15.806 4.406,-16.208 -1.253,-1.236 -39.941,40.929 -54.841,59.769 -3.697,4.675 -8.182,10.23 -9.967,12.345 -1.785,2.115 -3.653,4.59 -4.153,5.5 -0.499,0.91 -2.558,3.68 -4.576,6.155 -2.017,2.475 -6.309,8.325 -9.538,13 -19.292,27.938 -16.826,25.193 -25.045,27.885 -3.263,1.069 -16.045,5.357 -28.404,9.529 -28.152,9.504 -29.604,9.515 -17.775,0.13 3.435,-2.725 8.256,-6.888 10.714,-9.25 2.457,-2.362 4.779,-4.294 5.16,-4.294 0.382,0 3.996,-2.699 8.033,-5.999 4.036,-3.299 8.1,-5.999 9.03,-6 0.93,0 1.962,-0.439 2.292,-0.974 0.331,-0.535 2.495,-1.477 4.809,-2.093 6.821,-1.816 8.046,-3.611 17.7,-25.934 1.784,-4.125 5.158,-11.55 7.499,-16.5 5.28,-11.168 8.777,-18.944 10.569,-23.5 0.757,-1.925 2.355,-5.525 3.551,-8 3.756,-7.772 2.069,-7.324 -11.238,2.981 -3.919,3.035 -10.871,8.219 -15.449,11.519 -4.577,3.3 -10.145,7.357 -12.373,9.016 C 338.488,500.618 312,517.525 312,513.804 c 0,-1.144 1.925,-4.32 8.161,-13.467 1.562,-2.29 2.839,-4.432 2.839,-4.759 0,-0.327 1.35,-2.459 3,-4.737 6.653,-9.184 0.448,-9.355 -16,-0.442 -1.375,0.745 -6.55,2.936 -11.5,4.869 -4.95,1.932 -12.002,4.688 -15.671,6.123 -12.981,5.077 -12.824,4.184 1.922,-10.945 6.462,-6.63 16.755,-17.289 22.874,-23.688 l 11.124,-11.633 15.039,-1.57 c 8.271,-0.864 23.38596,-2.83914 24.94596,-3.15514 27.54373,-19.54094 46.85012,-41.39865 72.77668,-63.24311 l -8.25786,-11.3505 c 0,0 0.80622,-3.03725 -21.25278,16.23975 -24.248,21.191 -21.463,20.417 -39.077,10.855 -4.717,-2.561 -9.509,-4.952 -10.649,-5.314 -1.98,-0.629 -13.595,7.763 -36.428,26.318 -3.109,2.527 -8.907,7.07 -12.884,10.095 -3.976,3.025 -14.032,10.941 -22.346,17.591 -18.666,14.931 -17.636,14.406 -28.3,14.422 l -8.816,0.012 -9.5,6.93 c -5.225,3.811 -10.985,7.968 -12.8,9.237 -1.816,1.269 -7.666,5.614 -13,9.654 -8.083,6.121 -16.744,10.841 -51.95,28.311 L 114,541.122 V 569.561 598 H 505.5 897 v -46.913 -46.914 l -4.25,-3.038 c -2.337,-1.671 -5.6,-3.991 -7.25,-5.157 -3.232,-2.282 -22.611,-16.842 -34,-25.544 -20.173,-15.413 -55.799,-42.912 -64.154,-49.52 -3.935,-3.111 -9.785,-7.155 -13,-8.986 -3.809,-2.169 -12.821,-10.142 -25.862,-22.879 -23.269,-22.727 -66.593,-63.435 -96.779,-90.935 -5.063,-4.612 -20.382,-18.787 -34.044,-31.5 -29.089,-27.07 -29.088,-27.069 -35.095,-24.716 m -402.341,3.047 c -12.16,7.634 -7.058,19.308 14.396,32.944 59.889,38.064 63.519,40.732 59.129,43.466 -72.828,45.348 -76.758,47.859 -79.25,50.629 -3.733,4.15 -3.522,19.148 0.324,22.994 5.222,5.222 5.147,5.256 51.705,-23.742 23.634,-14.721 48.566,-30.133 55.405,-34.25 24.434,-14.71 25.606,-19.623 7.326,-30.704 -3.432,-2.08 -26.552,-17.016 -51.378,-33.191 -49.758,-32.419 -50.373,-32.72 -57.657,-28.146"
     stroke="none"
     fill="#0c2940"
     fill-rule="evenodd"
     id="path9"
     style="display:inline"
     sodipodi:nodetypes="ccscscccscccscccsccccsscccccccscsssccssccsccccccscsccccsccssccsccscscccscccccccsccccscccsccscscscssscccccccccccccccccccccccccccccccccccccscccsc"
     sodipodi:insensitive="true" />
  <path
     d="m 710.0354,723.59668 c -4.4,0.717 -8.562,1.339 -9.25,1.38 -2.127,0.128 -1.797,163.651 0.332,164.468 0.87,0.334 19.263,0.607 40.873,0.607 h 39.292 l 13.127,-13.52 13.126,-13.52 v -29.743 -29.744 l -13.861,-13.834 -13.861,-13.834 -18.464,0.347 -18.464,0.348 -4.307,3 c -7.93,5.523 -9.536,6.489 -10.793,6.495 -0.974,0.004 -1.25,-7.059 -1.25,-31.995 v -32 l -4.25,0.12 c -2.337,0.065 -7.85,0.707 -12.25,1.425 m -241.277,1.012 c -10.11,7.081 -2.07,30.443 10.477,30.443 13.357,0 23.371,-25.075 12.366,-30.965 -3.174,-1.698 -20.23,-1.309 -22.843,0.522 m -129.232,5.193 c -0.004,3.163 -0.292,8.112 -0.639,11 l -0.631,5.25 h 11.105 c 14.577,0 13.174,-6.522 13.174,61.234 0,66.64 1.576,59.766 -13.7,59.766 h -11.3 v 11.512 11.512 l 38.25,-0.262 38.25,-0.262 v -11 -11 l -12,-0.5 -12,-0.5 -0.257,-71.25 -0.256,-71.25 h -24.994 -24.993 l -0.009,5.75 m -109.735,52.5 c -4.355,3.438 -11.369,9.435 -15.587,13.327 l -7.669,7.078 v 31.177 31.177 l 11.642,12.495 11.642,12.496 h 27.382 27.382 l 12.976,-7.628 c 14.162,-8.324 13.886,-7.925 11.374,-16.44 -2.195,-7.443 -2.5,-7.677 -11.045,-8.478 l -7.535,-0.706 -5.19,5.126 -5.191,5.126 h -19.641 -19.64 l -3.578,-4.18 -3.578,-4.18 v -23.116 -23.116 l 6.929,-6.204 6.929,-6.204 h 15.295 15.294 l 5.841,6.138 5.841,6.139 7.685,-0.654 c 13.2,-1.122 12.515,-0.508 11.684,-10.486 -0.813,-9.766 0.287,-8.37 -14.343,-18.192 l -10.346,-6.945 h -23.317 -23.318 l -7.918,6.25 m 359.867,-5.517 c -1.858,0.227 -6.915,2.63 -11.239,5.34 -9.929,6.222 -10.822,6.073 -10.87,-1.823 -0.014,-2.213 -0.221,-2.25 -12.522,-2.25 h -12.509 l 0.259,55.75 0.258,55.75 h 13 13 l 0.261,-41.743 0.261,-41.743 4.106,-2.717 c 3.071,-2.033 5.679,-2.817 10.353,-3.115 11.465,-0.73 10.519,-4.857 10.519,45.882 v 43.994 l 13.25,-0.279 13.25,-0.279 0.5,-41.45 0.5,-41.449 4.328,-3.301 c 4.182,-3.189 7.079,-3.925 13.604,-3.454 5.73,0.413 5.526,-1.208 5.808,46.018 l 0.26,43.636 h 13.5 13.5 l 0.26,-46.853 0.26,-46.853 -3.499,-5.759 c -1.924,-3.168 -5.576,-7.674 -8.115,-10.015 l -4.616,-4.255 -8.645,0.42 c -8.385,0.406 -21.095,5.688 -23.654,9.83 -1.213,1.962 -6.115,1.014 -8.567,-1.656 -6.924,-7.543 -13.101,-9.301 -26.801,-7.626 m 297.277,2.149 c -2.145,1.585 -5.906,4.96 -8.358,7.5 -5.25,5.438 -6.574,5.706 -7.415,1.502 -0.343,-1.714 -2.371,-4.864 -4.508,-7 l -3.884,-3.884 h -19.117 -19.118 v 10.869 10.869 l 10.317,0.459 c 5.674,0.252 10.849,0.788 11.5,1.19 0.881,0.545 1.183,11.778 1.183,44.05 0,50.926 -1.735,45.729 15.141,45.345 l 12.359,-0.282 0.263,-36.935 c 0.301,-42.448 -1.058,-37.194 12.237,-47.308 l 8.5,-6.466 8.746,0.479 c 10.376,0.568 11.292,1.169 12.187,7.997 1.245,9.494 1.804,9.84 15.361,9.514 l 11.706,-0.281 0.294,-8.469 c 0.276,-7.958 0.083,-8.892 -3.203,-15.5 -7.66,-15.404 -10.004,-16.531 -34.384,-16.531 h -15.907 l -3.9,2.882 m -445.717,-1.232 c -0.375,0.376 -0.683,5.285 -0.683,10.909 v 10.225 l 11.25,0.373 c 15.239,0.505 13.75,-3.146 13.75,33.702 0,37.435 1.322,34.141 -13.7,34.141 h -11.3 v 11.5 11.5 h 38.5 38.5 v -11.5 -11.5 h -11.441 c -14.437,0 -12.973,4.966 -13.559,-46 l -0.5,-43.5 -25.067,-0.267 c -13.786,-0.147 -25.374,0.041 -25.75,0.417 m 291.817,25.406 c -6.763,5.073 -6.5,3.715 -6.5,33.553 0,14.975 0.273,27.939 0.607,28.809 0.527,1.374 3.398,1.582 21.804,1.582 h 21.197 l 3.028,-3.25 c 7.74,-8.306 7.364,-6.766 7.364,-30.162 0,-23.271 0.201,-22.395 -6.852,-29.838 l -3.554,-3.75 -16.547,0.028 -16.547,0.028 -4,3"
     stroke="none"
     fill="#0c2940"
     fill-rule="evenodd"
     id="path9-6"
     style="display:inline"
     sodipodi:nodetypes="ccsscccccccccccsccccscccccssscccccccccccccccccccccccccccccccccccccccccccccccccccscccccccccsccccccccccccccccccccccsccccccccscccscsccccsscccsccsscccccccssccccscsccsccccc"
     inkscape:label="climbr" />
  <g
     id="g10"
     clip-path="url(#clipPath10)"
     style="display:inline"
     inkscape:label="carabiner">
    <g
       inkscape:label="Clip"
       id="g9"
       style="display:inline">
      <path
         d="m 137.22061,703.75 c -0.66868,6.96978 -9.94373,9.85627 -15.82283,7.25334 -4.734,-2.414 -3.61961,-2.85161 -4.46561,18.25039 -0.722,18.002 -0.16317,18.45327 2.10983,20.57027 5.259,4.9 13.256,4.848 18.708,-0.121 2.114,-1.928 2.254,-2.87 2.321,-15.627 0.039,-7.467 0.415,-17.176 0.836,-21.576 0.761,-7.954 0.076,-12.5 -1.882,-12.5 -0.564,0 -1.99895,0.93061 -2.01095,2.99261"
         stroke="none"
         fill="#f2994a"
         fill-rule="evenodd"
         id="path7"
         style="display:inline"
         inkscape:label="carabiner-clip"
         sodipodi:nodetypes="ccccccssc" />
      <path
         d="m 119.10209,687.43924 c -11.507,4.262 -16.871,17.004 -10.245,24.338 6.282,6.953 5.246,9.483 -5.844,14.267 -19.934,8.599 -30.111,25.058 -29.397,47.546 0.678,21.367 7.808001,30.615 47.349,61.418 21.927,17.081 27.5,21.806 27.5,23.315 0,2.659 3.786,8.197 7.106,10.394 5.007,3.313 6.827,10.576 4.95,19.757 -5.413,26.484 -35.24,38.944 -57.678,24.094 -15.881,-10.511 -19.493,-25.253 -12.236,-49.932 3.586,-12.192 -0.215,-19.608 -10.049,-19.608 -9.621,0 -10.782,2.014 -16.131,28 -7.964,38.688 16.579,70.516 56.038,72.673 51.564,2.818 84.477,-54.279 54.39,-94.356 -1.76614,-2.35304 -0.33481,-34.13292 -0.452,-40.247 0.942,-1.728 1.146,-4.545 0.706,-9.75 -0.542,-6.415 -0.313,-8.01 1.849,-12.9 8.372,-18.931 -0.929,-45.511 -20.114,-57.477 -2.596,-1.619 -3.233,-2.782 -3.779,-6.903 -0.425,-3.2 -1.597,-6.071 -3.309,-8.106 -1.849,-2.197 -2.896,-4.94 -3.46,-9.06 -2.047,-14.972 -13.705,-22.459 -27.194,-17.463 m -5.91169,12.44144 c -2.256,2.492 -2.17,6.171 0.144,6.171 1.538,0 4.201,-4.641 4.201,-7.321 0,-1.357 -2.731,-0.634 -4.345,1.15 m 24.345,3.525 c 0,7.015 -7.01,11.06 -14.327,8.265 -2.332,-0.89 -4.508,-1.619 -4.835,-1.619 -0.862,0 -2.165,34.393 -1.395,36.821 1.954,6.157 15.335,7.352 20.358,1.819 2.692,-2.966 4.314,-48.64 1.727,-48.64 -1.067,0 -1.528,1.012 -1.528,3.354 m 7,18.146 c 0,0.833 0.889,1.5 2,1.5 1.111,0 2,-0.667 2,-1.5 0,-0.833 -0.889,-1.5 -2,-1.5 -1.111,0 -2,0.667 -2,1.5 m -44.432,17.711 c -21.573997,15.983 -21.708997,48.691 -0.267997,64.511 7.043997,5.196 7.450997,2.134 0.742997,-5.579 -16.924997,-19.459 -13.320997,-45.984 7.792,-57.346 1.967,-1.059 3.165,-2.478 3.165,-3.75 0,-3.54 -5.015,-2.59 -11.432,2.164 m 44.432,-1.742 c 0,1.888 1.245,3.266 5.285,5.85 5.887,3.766 9.831,8.029 12.783,13.815 3.934,7.711 6.199,4.754 2.57,-3.355 -4.747,-10.611 -20.638,-23.169 -20.638,-16.31 m -37.366,15.604 c -6.45159,5.88719 -11.007028,20.65924 -8.337371,26.32408 0,3.318 15.298371,19.10592 31.082371,31.03292 8.317,6.284 16.443,12.808 18.058,14.498 8.55287,8.94604 6.59881,-16.08436 6.063,-16.29 -1.736,-0.666 -2.006,-4.732 -0.42,-6.318 0.774,-0.774 0.628,-2.413 -0.514,-5.777 -2.926,-8.618 -3.253,-24.548 -0.601,-29.266 2.536,-4.514 2.248,-5.61 -3.295,-12.527 -3.452,-4.308 -4.617,-4.572 -7.265,-1.644 -3.065,3.39 -8.974,5.894 -13.905,5.894 -4.931,0 -10.84,-2.504 -13.905,-5.894 -2.384,-2.636 -3.644,-2.642 -6.961,-0.033 m 51.173,16.677 c -2.615,3.044 -2.785,5.013 -1.368,15.8 3.022,23.012 13.561,14.756 13.561,-10.624 0,-6.125 -8.338,-9.664 -12.193,-5.176 M 77.156403,853.2407 c -2.388,3.666 -3.33,17.602 -1.244,18.402 3.472,1.332 8.299,-9.743 7.461,-17.118 -0.442,-3.888 -4.037,-4.631 -6.217,-1.284 m 90.610997,4.811 c -1.342,2.148 -7.581,2.863 -8.732,1 -1.11,-1.796 -3.5,-1.052 -3.5,1.09 0,5.418 9.735,7.95 13.826,3.596 2.352,-2.504 2.969,-7.686 0.915,-7.686 -0.693,0 -1.822,0.9 -2.509,2 m -80.054997,57.643 c 0.178,0.903 1.173,2.141 2.211,2.75 1.039,0.609 3.064,2.166 4.5,3.46 8.092997,7.29 37.111997,13.27 37.111997,7.647 0,-1.147 -1.263,-1.5 -5.364,-1.5 -11.233,0 -30.679997,-6.866 -34.442997,-12.161 -1.631,-2.296 -4.457,-2.434 -4.016,-0.196 m 48.822997,11.857 c 0,0.825 0.675,1.5 1.5,1.5 0.825,0 1.5,-0.675 1.5,-1.5 0,-0.825 -0.675,-1.5 -1.5,-1.5 -0.825,0 -1.5,0.675 -1.5,1.5"
         stroke="none"
         fill="#0c2940"
         fill-rule="evenodd"
         id="path10"
         style="display:inline"
         sodipodi:nodetypes="ccsccsccccsccccccscccccsscccsccsccssscccccscccscccscccsccccsccccscccccccscsccccsscccsssc"
         inkscape:label="carabiner" />
      <path
         d="m 169.53865,819.94677 c 0.015,2.12566 0.0354,4.25126 0.0615,6.37675 0.0367,3.06739 0.0535,6.1341 0.0667,9.2018 0.0155,0.93986 0.031,1.87971 0.0469,2.84804 0.002,6.55434 -0.0681,11.33399 -2.33585,17.20796 -1.92255,2.2942 -6.21202,2.46687 -7.7109,0.32401 -0.28074,-19.29388 -2.30694,-39.75678 -2.40412,-58.6602 3.66048,6.93827 10.57687,2.90659 11.59423,0.0927 -0.15927,7.61812 0.63546,14.98956 0.68154,22.60891 z"
         fill="#71a9cb"
         id="path10-3"
         style="stroke-width:1.13509"
         sodipodi:nodetypes="cccccccccc" />
      <path
         d="m 167.72921,820.68373 c 0.78573,-0.8199 1.3113,-0.48377 1.84247,-0.17257 0.73377,13.59486 1.50461,27.16186 -2.16694,34.78572 -5.29465,-5.44892 -4.90334,-8.96771 -4.53814,-10.63265 l 1.95442,-6.80695 z"
         fill="#cce2eb"
         id="path62"
         style="stroke-width:1.88875"
         sodipodi:nodetypes="cccccc" />
    </g>
  </g>
</svg>
