<?xml version="1.0" encoding="UTF-8" standalone="no"?>
<svg
   viewBox="0 0 1008 1008"
   version="1.1"
   id="svg9"
   sodipodi:docname="climbr.svg"
   inkscape:version="1.4.3 (fcd0343856, 2026-01-01)"
   xmlns:inkscape="http://www.inkscape.org/namespaces/inkscape"
   xmlns:sodipodi="http://sodipodi.sourceforge.net/DTD/sodipodi-0.dtd"
   xmlns="http://www.w3.org/2000/svg"
   xmlns:svg="http://www.w3.org/2000/svg">
  <defs
     id="defs9">
    <clipPath
       clipPathUnits="userSpaceOnUse"
       id="clipPath10">
      <g
         inkscape:label="Clip"
         id="use10"
         style="display:inline" />
    </clipPath>
  </defs>
  <sodipodi:namedview
     id="namedview9"
     pagecolor="#ffffff"
     bordercolor="#000000"
     borderopacity="0.25"
     inkscape:showpageshadow="2"
     inkscape:pageopacity="0.0"
     inkscape:pagecheckerboard="0"
     inkscape:deskcolor="#d1d1d1"
     inkscape:zoom="0.86578241"
     inkscape:cx="409.45623"
     inkscape:cy="736.3282"
     inkscape:window-width="1854"
     inkscape:window-height="1011"
     inkscape:window-x="0"
     inkscape:window-y="0"
     inkscape:window-maximized="1"
     inkscape:current-layer="svg9" />
  <rect
     style="fill:#ffffff"
     id="rect14"
     width="1008.3365"
     height="1007.1815"
     x="-2.1815796e-07"
     y="1.1550246" />
  <path
     style="display:inline;fill:#ffffff;stroke-width:1.15502"
     d="m 644.50374,483.88142 c -4.44684,-3.0973 -15.10194,-12.09707 -23.678,-19.99947 -21.47589,-19.78894 -22.21711,-20.35249 -26.76909,-20.35249 -4.28519,0 -23.92467,8.39196 -30.81614,13.16774 -4.61712,3.19967 -7.09615,3.80311 -7.09615,1.72735 0,-0.70138 2.61291,-9.40737 5.80647,-19.34666 6.26106,-19.48621 23.67414,-87.73041 22.64719,-88.75736 -0.34353,-0.34353 -15.31614,8.76611 -33.27247,20.24366 -17.95634,11.47754 -32.78853,20.72761 -32.96044,20.55571 -0.61855,-0.61855 62.54978,-146.25468 63.43663,-146.25468 0.4995,0 0.90818,0.81302 0.90818,1.8067 0,0.99369 28.95911,31.00989 64.35356,66.70267 130.5284,131.62857 134.38062,135.69192 132.72699,140.00119 -0.6129,1.5972 -1.07081,1.58513 -4.35845,-0.11499 -2.02048,-1.04482 -5.5382,-3.7275 -7.81717,-5.96151 -11.24576,-11.02387 -52.33451,-39.38148 -55.39765,-38.23295 -0.57193,0.21444 -0.12891,3.76835 0.9845,7.89756 1.11341,4.12921 5.43997,19.98193 9.61458,35.22825 4.17462,15.24633 7.94099,29.53976 8.3697,31.76318 l 0.7795,4.04259 -3.67005,-3.46508 c -2.01853,-1.90579 -9.70014,-12.30101 -17.07023,-23.10049 -31.43606,-46.06352 -39.93517,-57.17372 -43.73686,-57.17372 -0.88915,0 -1.61664,0.25862 -1.61664,0.57471 0,0.31609 2.56982,9.28197 5.71073,19.92417 6.86376,23.25622 8.0121,28.76347 5.71062,27.38694 -8.34484,-4.9911 -13.46591,-11.38645 -29.72602,-37.12272 -12.97488,-20.53642 -20.32014,-29.54469 -25.58783,-31.38102 -3.20078,-1.1158 -3.50703,-0.97881 -4.22724,1.89072 -0.42705,1.70151 -0.16527,7.26091 0.58172,12.35421 2.28259,15.56354 6.55454,27.46205 22.44204,62.50701 10.12779,22.3401 13.11393,29.50622 12.17979,29.22902 -0.20163,-0.0598 -4.00492,-2.64294 -8.45177,-5.74024 z"
     id="path13" />
  <path
     d="m 125.5,113.503 c -14.996,5.304 -16.503,25.353 -2.445,32.525 7.705,3.931 17.743,1.363 22.55,-5.769 9.335,-13.853 -4.507,-32.274 -20.105,-26.756"
     stroke="none"
     fill="#be2020"
     fill-rule="evenodd"
     id="path4"
     style="display:inline"
     inkscape:label="close-button" />
  <path
     d="M 185.727 114.791 C 166.530 128.574, 185.749 157.875, 205.435 144.836 C 220.892 134.597, 213.856 111.909, 195.264 112.041 C 190.633 112.074, 188.759 112.614, 185.727 114.791"
     stroke="none"
     fill="#fbbf00"
     fill-rule="evenodd"
     id="path5"
     inkscape:label="minimise-button" />
  <path
     d="M 254.145 113.070 C 235.385 120.584, 239.705 148.051, 259.636 147.984 C 278.390 147.920, 283.761 121.699, 266.616 113.913 C 262.143 111.882, 257.838 111.591, 254.145 113.070"
     stroke="none"
     fill="#70bd4f"
     fill-rule="evenodd"
     id="path6"
     inkscape:label="expand-button" />
  <path
     style="fill:#ffffff;stroke-width:1.24422"
     d="m 652.23481,501.95627 c -4.80284,-3.32774 -16.31097,-12.99713 -25.57361,-21.48748 -23.19522,-21.26129 -23.99577,-21.86677 -28.91218,-21.86677 -4.62825,0 -25.84004,9.01634 -33.28322,14.14745 -4.98676,3.43774 -7.66426,4.08607 -7.66426,1.85587 0,-0.75356 2.8221,-10.1073 6.27132,-20.7861 6.76232,-20.93603 25.56946,-94.25778 24.46029,-95.36114 -0.37103,-0.36909 -16.54232,9.41834 -35.9362,21.74985 -19.39389,12.3315 -35.41352,22.2698 -35.5992,22.0851 -0.66807,-0.66457 67.55741,-157.1364 68.51525,-157.1364 0.53949,0 0.98089,0.87351 0.98089,1.94112 0,1.06763 31.27753,33.3171 69.50559,71.66552 140.97827,141.42208 145.13889,145.78775 143.35288,150.41764 -0.66197,1.71604 -1.15654,1.70307 -4.70739,-0.12354 -2.18223,-1.12256 -5.98157,-4.00484 -8.44299,-6.40506 -12.14607,-11.84408 -56.52431,-42.31157 -59.83269,-41.07758 -0.61772,0.23038 -0.13923,4.04872 1.06332,8.48515 1.20254,4.43644 5.87548,21.46864 10.38431,37.84932 4.50883,16.3807 8.57672,31.7376 9.03976,34.12644 l 0.84191,4.34338 -3.96388,-3.7229 c -2.18012,-2.04758 -10.47671,-13.21624 -18.43684,-24.81922 -33.95277,-49.49077 -43.1323,-61.42759 -47.23835,-61.42759 -0.96033,0 -1.74606,0.27786 -1.74606,0.61747 0,0.3396 2.77555,9.97257 6.16792,21.40657 7.41326,24.98655 8.65353,30.90355 6.1678,29.42461 -9.01291,-5.36246 -14.54397,-12.23364 -32.10583,-39.88475 -14.01363,-22.06438 -21.94694,-31.74289 -27.63634,-33.71585 -3.45703,-1.19881 -3.78781,-1.05163 -4.56567,2.0314 -0.46124,1.82811 -0.17851,7.80114 0.62829,13.27339 2.46533,16.7215 7.07928,29.5053 24.2387,67.1577 10.93861,24.00225 14.16381,31.70155 13.15489,31.40372 -0.21777,-0.0642 -4.32555,-2.83957 -9.12841,-6.16732 z"
     id="path14"
     inkscape:label="mountain-peak" />
  <path
     d="m 413.07868,385.59136 c -0.0603,0.14313 7.47961,11.64996 7.47961,11.64996 -0.22331,0.56257 -77.13128,68.50606 -77.13128,68.50606 l -43.79159,3.84687 -57.72689,59.82069 67.48926,-25.88697 -21.52965,38.98113 113.24276,-78.83237 -35.88056,77.58683 -84.29103,42.83452 c 0.0171,0.70823 59.64405,0.78887 92.09508,0.78887 25.49548,-6.31282 109.20488,-151.54615 109.20488,-151.54615 l -18.82536,50.86837 c 0,0 77.4939,-69.75208 77.28859,-69.43481 l -61.25495,94.65408 44.41186,-24.32392 -89.80139,112.54245 152.092,-92.37815 c 0,0 -10.06886,60.41607 9.08837,65.62301 19.15723,5.20693 28.61645,-37.82498 28.4751,-38.54829 0,0 39.78917,66.24214 40.85087,68.75302 -0.75214,0.3427 0.79403,-44.63364 0.79403,-44.63364 l 74.23395,30.16215 -60.21564,-102.7739 107.4405,112.18249 c 4.932,-7.00181 1.42568,-40.72288 1.42568,-40.72288 l 53.77659,41.25684 -43.04189,-72.36642 c 0,0 67.08025,32.45285 67.38142,25.16553 6.78647,-8.67977 -87.01256,-71.61441 -84.78217,-77.40377 1.12438,-2.91265 29.64104,6.23804 6.96978,-4.70211 -4.25423,-8.01843 -60.58188,-47.24026 -63.50372,-45.0214 -0.55779,0.55487 24.88877,85.22903 22.08936,85.18185 -8.81252,-0.14944 -63.98604,-97.14893 -71.30113,-89.877 0,0 19.84424,61.25657 12.5816,51.23289 -22.40895,-8.0975 -43.90909,-72.50444 -63.99452,-74.93098 -5.9787,26.10571 25.15347,82.12244 34.72603,104.85739 4.83974,11.42412 4.19926,12.5587 -3.42594,6.06608 -20.81925,-11.51948 -35.31087,-31.93062 -54.10228,-45.22483 -3.6074,-2.47758 -12.23706,1.32903 -12.23706,1.32903 -7.94904,5.20898 -18.61037,6.85694 -25.75399,13.3183 -5.5245,5.73624 -10.08667,2.60972 -6.53219,-4.47811 13.68183,-35.89738 30.24595,-111.40266 30.24595,-111.40266 l -73.93646,47.07603 70.42099,-162.64986"
     stroke="none"
     fill="#05527c"
     fill-rule="evenodd"
     id="path8"
     style="display:inline;stroke-width:1.07722"
     sodipodi:nodetypes="ccccccccccsccscccccccccccccccccsccsccsccccccc"
     inkscape:label="mounain-internal-path" />
  <path
     d="m 585.33845,241.96865 c -1.43539,0.5587 -1.68813,1.05937 -0.81005,1.59979 0.70313,0.43192 1.2788,1.83293 1.2788,3.11363 0,1.65242 27.37407,29.62127 94.31716,96.36423 136.32386,135.91838 132.38381,131.08141 102.86366,126.26917 -13.26096,-2.1617 -10.56837,2.62584 10.19359,18.12517 15.80233,11.79587 35.74345,27.57131 47.2277,37.3602 6.99122,5.95971 13.91331,11.62611 15.38111,12.592 5.77832,3.80446 10.91831,10.89014 7.89954,10.89014 -0.96124,0 -22.73738,-7.29197 -25.68918,-8.60274 -6.64884,-2.9503 -32.18141,-15.49933 -37.20476,-18.28526 -6.49331,-3.60032 -10.02402,-3.61214 -7.47077,-0.0247 5.84852,8.21811 16.94396,24.50927 18.58997,27.2952 1.09734,1.85764 3.28445,5.06581 4.86026,7.12867 2.72607,3.56809 3.80288,5.3258 6.26218,10.21649 0.59403,1.18184 2.62346,5.13671 4.5114,8.78754 6.74928,13.05936 4.1593,13.37631 -10.43768,1.27853 -0.796,-0.65968 -5.17024,-4.10313 -9.72052,-7.65082 -4.54922,-3.54768 -11.26069,-9.3473 -14.91345,-12.88961 -6.88537,-6.67526 -9.84365,-7.38544 -8.46225,-2.03276 11.19156,43.36933 5.21884,41.87591 -44.51568,-11.12974 -23.20614,-24.73167 -62.72546,-64.45879 -63.4437,-63.77761 -1.00013,0.94869 13.86362,29.73409 19.89467,38.52915 1.0131,1.4773 3.23909,5.34515 4.94451,8.59522 1.70649,3.25007 4.33535,7.85066 5.84095,10.22401 4.10962,6.47758 4.76522,7.5638 12.64208,20.93366 4.0027,6.7956 7.62629,12.60275 8.05183,12.90358 0.42555,0.3019 1.10275,1.85334 1.5056,3.44776 0.40179,1.59441 1.41272,3.4628 2.24545,4.14934 5.61631,4.63712 0.20845,4.94548 -9.58552,0.54687 -3.10192,-1.39242 -13.41756,-5.78028 -22.92208,-9.7502 -9.50451,-3.96992 -21.07084,-8.8606 -25.70321,-10.86866 -4.63346,-2.00914 -8.64264,-3.65189 -8.91049,-3.65189 -0.26893,0 -0.48819,9.18614 -0.48819,20.41364 0,21.95757 -0.89644,24.99384 -4.83865,16.38465 -4.33967,-9.47731 -15.12298,-30.2627 -19.80071,-38.16493 -2.78439,-4.70267 -6.38638,-10.79237 -8.0054,-13.53102 -1.619,-2.73758 -3.65923,-6.54956 -4.53515,-8.4706 -2.4863,-5.45259 -8.09828,-0.46522 -13.44781,11.95273 -0.2225,0.51679 -1.1049,1.72549 -1.9603,2.68601 -0.8565,0.96051 -4.00055,5.49234 -6.9869,10.07252 -5.77292,8.85093 -7.91683,10.14343 -8.9148,5.37202 -1.79506,-8.58233 -4.19603,-27.37256 -5.31821,-41.61914 -1.53476,-19.49826 -1.16322,-19.23932 -14.99876,-10.44641 -5.51047,3.50255 -17.79504,11.10609 -27.29955,16.8982 -9.50453,5.79103 -20.1971,12.32877 -23.76129,14.527 -16.91911,10.43675 -25.5585,15.67338 -28.3148,17.1625 -1.65357,0.89284 -5.98677,3.43164 -9.62872,5.64062 -3.64196,2.20789 -6.92102,4.01504 -7.28716,4.01504 -0.36722,0 -3.03496,1.69219 -5.92843,3.76041 -2.89457,2.06823 -5.57743,3.7604 -5.963,3.7604 -0.38451,0 -3.9001,1.93393 -7.81099,4.29762 -10.73146,6.48509 -12.40555,5.06473 -4.20574,-3.56917 2.6645,-2.80634 7.61764,-8.59092 11.00578,-12.85415 3.38923,-4.26323 8.69555,-10.6527 11.79317,-14.19931 3.09652,-3.5466 7.2569,-8.71125 9.24421,-11.47676 1.98731,-2.76552 6.74821,-9.0497 10.58025,-13.96508 35.9087,-46.06717 34.84052,-44.04299 18.40527,-34.87404 -5.97596,3.3328 -11.08247,6.0607 -11.34925,6.0607 -0.26569,0 -3.66031,1.93393 -7.54204,4.29761 -10.80382,6.57857 -11.791,5.46656 -4.91642,-5.53317 2.34588,-3.75181 5.31279,-8.75638 6.59267,-11.12007 1.28095,-2.36368 5.60765,-9.15821 9.61575,-15.09965 4.0081,-5.94144 7.48157,-11.25974 7.7181,-11.81843 0.67611,-1.59548 17.38246,-26.73865 18.1655,-27.33925 1.61145,-1.23556 8.89212,-13.08622 8.36289,-13.61267 -1.00877,-1.0035 -17.12864,12.22454 -33.10918,27.17056 -12.9175,12.08166 -33.66542,29.41822 -35.20666,29.41822 -2.35561,0 -1.93222,-2.09294 4.0351,-19.94199 3.05764,-9.14639 5.1994,-16.98201 4.75874,-17.41392 -1.35332,-1.32796 -43.13861,43.97423 -59.23148,64.21597 -3.99297,5.02284 -8.83704,10.99114 -10.76493,13.2635 -1.92791,2.27236 -3.94546,4.93151 -4.48549,5.90921 -0.53895,0.97771 -2.76279,3.9538 -4.94235,6.61296 -2.17848,2.65914 -6.81408,8.94439 -10.30159,13.96722 -20.83649,30.01667 -18.17306,27.06743 -27.05006,29.95972 -3.52423,1.14853 -17.32953,5.75557 -30.67797,10.23799 -30.4058,10.21112 -31.97404,10.22294 -19.19804,0.13967 3.71001,-2.92775 8.91697,-7.40048 11.57175,-9.93823 2.6537,-2.53774 5.16159,-4.61348 5.5731,-4.61348 0.41258,0 4.31591,-2.89981 8.6761,-6.44535 4.35912,-3.54445 8.74848,-6.44533 9.75293,-6.44641 1.00446,0 2.11907,-0.47166 2.47549,-1.04647 0.35751,-0.5748 2.69475,-1.58688 5.19401,-2.24872 7.36707,-1.95112 8.69014,-3.87967 19.11702,-27.86356 1.92683,-4.43191 5.57095,-12.40935 8.09936,-17.72764 5.7027,-11.99893 9.47967,-20.35348 11.41514,-25.24846 0.8176,-2.06823 2.54353,-5.93608 3.83529,-8.59522 4.05669,-8.35026 2.23463,-7.86893 -12.13771,3.20279 -4.23274,3.26081 -11.7413,8.83052 -16.68581,12.37605 -4.94342,3.54552 -10.95719,7.90437 -13.36357,9.68681 -37.87007,28.04406 -66.47865,46.20898 -66.47865,42.21113 0,-1.22912 2.07911,-4.64142 8.81435,-14.46898 1.68705,-2.46038 3.06629,-4.76175 3.06629,-5.11309 0,-0.35132 1.45808,-2.64195 3.24017,-5.08943 7.18563,-9.86732 0.48387,-10.05104 -17.28093,-0.47489 -1.48507,0.80043 -7.07438,3.15444 -12.42067,5.23126 -5.34629,2.07575 -12.96286,5.0368 -16.92559,6.57857 -14.02023,5.45474 -13.85066,4.4953 2.07587,-11.75934 6.97934,-7.12329 18.09638,-18.57535 24.70525,-25.45045 l 12.01457,-12.49852 16.243,-1.68682 c 8.93315,-0.92827 25.2582,-3.05037 26.94308,-3.38988 29.74883,-20.99484 50.60086,-44.47882 78.60305,-67.94857 l -8.91896,-12.195 c 0,0 0.87075,-3.26323 -22.95424,17.44803 -26.18925,22.76766 -23.1813,21.93607 -42.20544,11.66264 -5.09464,-2.75154 -10.27027,-5.32045 -11.50154,-5.70937 -2.13851,-0.67581 -14.68339,8.34058 -39.34436,28.27612 -3.3579,2.71501 -9.62008,7.59602 -13.91546,10.84609 -4.29432,3.25007 -15.15538,11.75504 -24.13498,18.89982 -20.16037,16.04191 -19.04792,15.47784 -30.56566,15.49503 l -9.52179,0.0129 -10.26055,7.44561 c -5.6433,4.09455 -11.86444,8.56084 -13.82474,9.92426 -1.96139,1.36341 -8.27973,6.03169 -14.04077,10.37227 -8.7301,6.57643 -18.08449,11.64761 -56.10901,30.41741 l -45.632464,22.52481 v 30.55494 30.55493 H 502.10268 924.94547 V 574.16212 523.7576 l -4.59025,-3.26404 c -2.5241,-1.79532 -6.04832,-4.28794 -7.83042,-5.54069 -3.49075,-2.45179 -24.4212,-18.0951 -36.72198,-27.44455 -21.78802,-16.55976 -60.26617,-46.10476 -69.29005,-53.20441 -4.25003,-3.34247 -10.56837,-7.68735 -14.04076,-9.65458 -4.11394,-2.33038 -13.84743,-10.89659 -27.93246,-24.58126 -25.13188,-24.41795 -71.92432,-68.15473 -104.52696,-97.7008 -5.46833,-4.95514 -22.01374,-20.18479 -36.76949,-33.84368 -31.41782,-29.08408 -31.41673,-29.083 -37.90465,-26.55494 m -434.55169,3.27371 c -13.13351,8.20199 -7.62305,20.74457 15.54852,35.39512 64.6836,40.89607 68.60421,43.76257 63.86276,46.69998 -78.65848,48.72201 -82.90311,51.41984 -85.59461,54.39594 -4.03186,4.45876 -3.80396,20.57265 0.34994,24.70481 5.64006,5.61053 5.55906,5.64706 55.84441,-25.50847 25.52609,-15.81628 52.4541,-32.37497 59.84062,-36.79829 26.39014,-15.80446 27.65597,-21.083 7.91251,-32.98846 -3.70676,-2.23476 -28.67771,-18.28203 -55.49124,-35.66049 -53.74154,-34.83106 -54.40576,-35.15445 -62.27291,-30.24014"
     stroke="none"
     fill="#0c2940"
     fill-rule="evenodd"
     id="path9"
     style="display:inline;stroke-width:1.07722"
     sodipodi:nodetypes="ccscscccscccscccsccccsscccccccscsssccssccsccccccscsccccsccssccsccscscccscccccccsccccscccsccscscscssscccccccccccccccccccccccccccccccccccccscccsc"
     inkscape:label="mountain-profile" />
  <path
     d="M 101.5,61.16 C 84.292,64.41 68.082,79.855 63.361,97.5 c -1.713,6.404 -1.987,502.07 -0.282,509.472 4.094,17.764 18.516,32.449 36.349,37.01 10.674,2.729 795.876,3.213 807.397,0.497 18.511,-4.363 32.841,-18.272 37.722,-36.61 2.306,-8.665 2.153,-503.147 -0.159,-510.937 C 939.641,80.929 928.886,69.451 912.5,62.899 l -6,-2.399 -400,-0.142 C 259.156,60.27 104.592,60.577 101.5,61.16 m 1.494,21.774 C 98.142,84.41 94.312,86.913 90.578,91.046 83.347,99.049 83.5,97.946 83.5,142 v 39.5 H 504 924.5 V 143 c 0,-47.419 -1.176,-51.729 -16,-58.647 l -5,-2.333 -399,0.076 C 285.05,82.138 104.372,82.515 102.994,82.934 M 83.238,403.749 83.5,603.5 l 2.256,4.222 c 3.524,6.594 7.91,10.975 13.761,13.743 l 5.38,2.545 399.801,-0.255 399.802,-0.255 4.843,-2.474 c 5.695,-2.909 10.126,-7.654 13.051,-13.975 L 924.5,602.5 v -199 -199 l -420.762,-0.251 -420.762,-0.251 0.262,199.751"
     stroke="none"
     fill="#499ac7"
     fill-rule="evenodd"
     id="window-border"
     style="display:inline"
     sodipodi:nodetypes="cccccccscccccscccscccccccccccsscccccc" />
  <path
     d="m 710.0354,723.59668 c -4.4,0.717 -8.562,1.339 -9.25,1.38 -2.127,0.128 -1.797,163.651 0.332,164.468 0.87,0.334 19.263,0.607 40.873,0.607 h 39.292 l 13.127,-13.52 13.126,-13.52 v -29.743 -29.744 l -13.861,-13.834 -13.861,-13.834 -18.464,0.347 -18.464,0.348 -4.307,3 c -7.93,5.523 -9.536,6.489 -10.793,6.495 -0.974,0.004 -1.25,-7.059 -1.25,-31.995 v -32 l -4.25,0.12 c -2.337,0.065 -7.85,0.707 -12.25,1.425 m -241.277,1.012 c -10.11,7.081 -2.07,30.443 10.477,30.443 13.357,0 23.371,-25.075 12.366,-30.965 -3.174,-1.698 -20.23,-1.309 -22.843,0.522 m -129.232,5.193 c -0.004,3.163 -0.292,8.112 -0.639,11 l -0.631,5.25 h 11.105 c 14.577,0 13.174,-6.522 13.174,61.234 0,66.64 1.576,59.766 -13.7,59.766 h -11.3 v 11.512 11.512 l 38.25,-0.262 38.25,-0.262 v -11 -11 l -12,-0.5 -12,-0.5 -0.257,-71.25 -0.256,-71.25 h -24.994 -24.993 l -0.009,5.75 m -109.735,52.5 c -4.355,3.438 -11.369,9.435 -15.587,13.327 l -7.669,7.078 v 31.177 31.177 l 11.642,12.495 11.642,12.496 h 27.382 27.382 l 12.976,-7.628 c 14.162,-8.324 13.886,-7.925 11.374,-16.44 -2.195,-7.443 -2.5,-7.677 -11.045,-8.478 l -7.535,-0.706 -5.19,5.126 -5.191,5.126 h -19.641 -19.64 l -3.578,-4.18 -3.578,-4.18 v -23.116 -23.116 l 6.929,-6.204 6.929,-6.204 h 15.295 15.294 l 5.841,6.138 5.841,6.139 7.685,-0.654 c 13.2,-1.122 12.515,-0.508 11.684,-10.486 -0.813,-9.766 0.287,-8.37 -14.343,-18.192 l -10.346,-6.945 h -23.317 -23.318 l -7.918,6.25 m 359.867,-5.517 c -1.858,0.227 -6.915,2.63 -11.239,5.34 -9.929,6.222 -10.822,6.073 -10.87,-1.823 -0.014,-2.213 -0.221,-2.25 -12.522,-2.25 h -12.509 l 0.259,55.75 0.258,55.75 h 13 13 l 0.261,-41.743 0.261,-41.743 4.106,-2.717 c 3.071,-2.033 5.679,-2.817 10.353,-3.115 11.465,-0.73 10.519,-4.857 10.519,45.882 v 43.994 l 13.25,-0.279 13.25,-0.279 0.5,-41.45 0.5,-41.449 4.328,-3.301 c 4.182,-3.189 7.079,-3.925 13.604,-3.454 5.73,0.413 5.526,-1.208 5.808,46.018 l 0.26,43.636 h 13.5 13.5 l 0.26,-46.853 0.26,-46.853 -3.499,-5.759 c -1.924,-3.168 -5.576,-7.674 -8.115,-10.015 l -4.616,-4.255 -8.645,0.42 c -8.385,0.406 -21.095,5.688 -23.654,9.83 -1.213,1.962 -6.115,1.014 -8.567,-1.656 -6.924,-7.543 -13.101,-9.301 -26.801,-7.626 m 297.277,2.149 c -2.145,1.585 -5.906,4.96 -8.358,7.5 -5.25,5.438 -6.574,5.706 -7.415,1.502 -0.343,-1.714 -2.371,-4.864 -4.508,-7 l -3.884,-3.884 h -19.117 -19.118 v 10.869 10.869 l 10.317,0.459 c 5.674,0.252 10.849,0.788 11.5,1.19 0.881,0.545 1.183,11.778 1.183,44.05 0,50.926 -1.735,45.729 15.141,45.345 l 12.359,-0.282 0.263,-36.935 c 0.301,-42.448 -1.058,-37.194 12.237,-47.308 l 8.5,-6.466 8.746,0.479 c 10.376,0.568 11.292,1.169 12.187,7.997 1.245,9.494 1.804,9.84 15.361,9.514 l 11.706,-0.281 0.294,-8.469 c 0.276,-7.958 0.083,-8.892 -3.203,-15.5 -7.66,-15.404 -10.004,-16.531 -34.384,-16.531 h -15.907 l -3.9,2.882 m -445.717,-1.232 c -0.375,0.376 -0.683,5.285 -0.683,10.909 v 10.225 l 11.25,0.373 c 15.239,0.505 13.75,-3.146 13.75,33.702 0,37.435 1.322,34.141 -13.7,34.141 h -11.3 v 11.5 11.5 h 38.5 38.5 v -11.5 -11.5 h -11.441 c -14.437,0 -12.973,4.966 -13.559,-46 l -0.5,-43.5 -25.067,-0.267 c -13.786,-0.147 -25.374,0.041 -25.75,0.417 m 291.817,25.406 c -6.763,5.073 -6.5,3.715 -6.5,33.553 0,14.975 0.273,27.939 0.607,28.809 0.527,1.374 3.398,1.582 21.804,1.582 h 21.197 l 3.028,-3.25 c 7.74,-8.306 7.364,-6.766 7.364,-30.162 0,-23.271 0.201,-22.395 -6.852,-29.838 l -3.554,-3.75 -16.547,0.028 -16.547,0.028 -4,3"
     stroke="none"
     fill="#0c2940"
     fill-rule="evenodd"
     id="path9-6"
     style="display:inline"
     sodipodi:nodetypes="ccsscccccccccccsccccscccccssscccccccccccccccccccccccccccccccccccccccccccccccccccscccccccccsccccccccccccccccccccccsccccccccscccscsccccsscccsccsscccccccssccccscsccsccccc"
     inkscape:label="climbr" />
  <path
     d="m 119.10209,687.43924 c -11.507,4.262 -16.871,17.004 -10.245,24.338 6.282,6.953 5.246,9.483 -5.844,14.267 -19.934,8.599 -30.111,25.058 -29.397,47.546 0.678,21.367 7.808001,30.615 47.349,61.418 21.927,17.081 27.5,21.806 27.5,23.315 0,2.659 3.786,8.197 7.106,10.394 5.007,3.313 6.827,10.576 4.95,19.757 -5.413,26.484 -35.24,38.944 -57.678,24.094 -15.881,-10.511 -19.493,-25.253 -12.236,-49.932 3.586,-12.192 -0.215,-19.608 -10.049,-19.608 -9.621,0 -10.782,2.014 -16.131,28 -7.964,38.688 16.579,70.516 56.038,72.673 51.564,2.818 84.477,-54.279 54.39,-94.356 -1.76614,-2.35304 -0.33481,-34.13292 -0.452,-40.247 0.942,-1.728 1.146,-4.545 0.706,-9.75 -0.542,-6.415 -0.313,-8.01 1.849,-12.9 8.372,-18.931 -0.929,-45.511 -20.114,-57.477 -2.596,-1.619 -3.233,-2.782 -3.779,-6.903 -0.425,-3.2 -1.597,-6.071 -3.309,-8.106 -1.849,-2.197 -2.896,-4.94 -3.46,-9.06 -2.047,-14.972 -13.705,-22.459 -27.194,-17.463 m -5.91169,12.44144 c -2.256,2.492 -2.17,6.171 0.144,6.171 1.538,0 4.201,-4.641 4.201,-7.321 0,-1.357 -2.731,-0.634 -4.345,1.15 m 24.345,3.525 c 0,7.015 -7.01,11.06 -14.327,8.265 -2.332,-0.89 -4.508,-1.619 -4.835,-1.619 -0.862,0 -2.165,34.393 -1.395,36.821 1.954,6.157 15.335,7.352 20.358,1.819 2.692,-2.966 4.314,-48.64 1.727,-48.64 -1.067,0 -1.528,1.012 -1.528,3.354 m 7,18.146 c 0,0.833 0.889,1.5 2,1.5 1.111,0 2,-0.667 2,-1.5 0,-0.833 -0.889,-1.5 -2,-1.5 -1.111,0 -2,0.667 -2,1.5 m -44.432,17.711 c -21.573997,15.983 -21.708997,48.691 -0.267997,64.511 7.043997,5.196 7.450997,2.134 0.742997,-5.579 -16.924997,-19.459 -13.320997,-45.984 7.792,-57.346 1.967,-1.059 3.165,-2.478 3.165,-3.75 0,-3.54 -5.015,-2.59 -11.432,2.164 m 44.432,-1.742 c 0,1.888 1.245,3.266 5.285,5.85 5.887,3.766 9.831,8.029 12.783,13.815 3.934,7.711 6.199,4.754 2.57,-3.355 -4.747,-10.611 -20.638,-23.169 -20.638,-16.31 m -37.366,15.604 c -6.45159,5.88719 -11.007028,20.65924 -8.337371,26.32408 0,3.318 15.298371,19.10592 31.082371,31.03292 8.317,6.284 16.443,12.808 18.058,14.498 8.55287,8.94604 6.59881,-16.08436 6.063,-16.29 -1.736,-0.666 -2.006,-4.732 -0.42,-6.318 0.774,-0.774 0.628,-2.413 -0.514,-5.777 -2.926,-8.618 -3.253,-24.548 -0.601,-29.266 2.536,-4.514 2.248,-5.61 -3.295,-12.527 -3.452,-4.308 -4.617,-4.572 -7.265,-1.644 -3.065,3.39 -8.974,5.894 -13.905,5.894 -4.931,0 -10.84,-2.504 -13.905,-5.894 -2.384,-2.636 -3.644,-2.642 -6.961,-0.033 m 51.173,16.677 c -2.615,3.044 -2.785,5.013 -1.368,15.8 3.022,23.012 13.561,14.756 13.561,-10.624 0,-6.125 -8.338,-9.664 -12.193,-5.176 M 77.156403,853.2407 c -2.388,3.666 -3.33,17.602 -1.244,18.402 3.472,1.332 8.299,-9.743 7.461,-17.118 -0.442,-3.888 -4.037,-4.631 -6.217,-1.284 m 90.610997,4.811 c -1.342,2.148 -7.581,2.863 -8.732,1 -1.11,-1.796 -3.5,-1.052 -3.5,1.09 0,5.418 9.735,7.95 13.826,3.596 2.352,-2.504 2.969,-7.686 0.915,-7.686 -0.693,0 -1.822,0.9 -2.509,2 m -80.054997,57.643 c 0.178,0.903 1.173,2.141 2.211,2.75 1.039,0.609 3.064,2.166 4.5,3.46 8.092997,7.29 37.111997,13.27 37.111997,7.647 0,-1.147 -1.263,-1.5 -5.364,-1.5 -11.233,0 -30.679997,-6.866 -34.442997,-12.161 -1.631,-2.296 -4.457,-2.434 -4.016,-0.196 m 48.822997,11.857 c 0,0.825 0.675,1.5 1.5,1.5 0.825,0 1.5,-0.675 1.5,-1.5 0,-0.825 -0.675,-1.5 -1.5,-1.5 -0.825,0 -1.5,0.675 -1.5,1.5"
     stroke="none"
     fill="#0c2940"
     fill-rule="evenodd"
     id="path10"
     style="display:inline"
     sodipodi:nodetypes="ccsccsccccsccccccscccccsscccsccsccssscccccscccscccscccsccccsccccscccccccscsccccsscccsssc"
     inkscape:label="carabiner" />
  <path
     d="m 169.53865,819.94677 c 0.015,2.12566 0.0354,4.25126 0.0615,6.37675 0.0367,3.06739 0.0535,6.1341 0.0667,9.2018 0.0155,0.93986 0.031,1.87971 0.0469,2.84804 0.002,6.55434 -0.0681,11.33399 -2.33585,17.20796 -1.92255,2.2942 -6.21202,2.46687 -7.7109,0.32401 -0.28074,-19.29388 -2.30694,-39.75678 -2.40412,-58.6602 3.66048,6.93827 10.57687,2.90659 11.59423,0.0927 -0.15927,7.61812 0.63546,14.98956 0.68154,22.60891 z"
     fill="#71a9cb"
     id="path10-3"
     style="display:inline;stroke-width:1.13509"
     sodipodi:nodetypes="cccccccccc"
     inkscape:label="carabiner-close" />
  <path
     d="m 167.72921,820.68373 c 0.78573,-0.8199 1.3113,-0.48377 1.84247,-0.17257 0.73377,13.59486 1.50461,27.16186 -2.16694,34.78572 -5.29465,-5.44892 -4.90334,-8.96771 -4.53814,-10.63265 l 1.95442,-6.80695 z"
     fill="#cce2eb"
     id="path62"
     style="display:inline;stroke-width:1.88875"
     sodipodi:nodetypes="cccccc"
     inkscape:label="carabilenr-close-shadow" />
  <path
     d="m 137.22061,703.75 c -0.66868,6.96978 -9.94373,9.85627 -15.82283,7.25334 -4.734,-2.414 -3.61961,-2.85161 -4.46561,18.25039 -0.722,18.002 -0.16317,18.45327 2.10983,20.57027 5.259,4.9 13.256,4.848 18.708,-0.121 2.114,-1.928 2.254,-2.87 2.321,-15.627 0.039,-7.467 0.415,-17.176 0.836,-21.576 0.761,-7.954 0.076,-12.5 -1.882,-12.5 -0.564,0 -1.99895,0.93061 -2.01095,2.99261"
     stroke="none"
     fill="#f2994a"
     fill-rule="evenodd"
     id="path7"
     style="display:inline"
     inkscape:label="carabiner-clip"
     sodipodi:nodetypes="ccccccssc" />
</svg>
